<svg width="108" height="108" viewBox="0 0 108 108" fill="none" xmlns="http://www.w3.org/2000/svg">
<rect width="108" height="108" rx="54" fill="#0A0A0A"/>
<path d="M67.5721 87.856L59.9401 78.712C57.8281 79.24 55.6681 79.504 53.4601 79.504C48.7561 79.504 44.4361 78.4 40.5001 76.192C36.5641 73.984 33.4441 70.936 31.1401 67.048C28.8361 63.112 27.6841 58.672 27.6841 53.728C27.6841 48.832 28.8361 44.44 31.1401 40.552C33.4441 36.616 36.5641 33.544 40.5001 31.336C44.4361 29.128 48.7561 28.024 53.4601 28.024C58.2121 28.024 62.5321 29.128 66.4201 31.336C70.3561 33.544 73.4521 36.616 75.7081 40.552C78.0121 44.44 79.1641 48.832 79.1641 53.728C79.1641 58.192 78.2041 62.272 76.2841 65.968C74.4121 69.616 71.8441 72.592 68.5801 74.896L80.1001 87.856H67.5721ZM38.0521 53.728C38.0521 57.088 38.7001 60.04 39.9961 62.584C41.2921 65.128 43.0921 67.096 45.3961 68.488C47.7481 69.832 50.4361 70.504 53.4601 70.504C56.4841 70.504 59.1481 69.832 61.4521 68.488C63.7561 67.096 65.5561 65.128 66.8521 62.584C68.1481 60.04 68.7961 57.088 68.7961 53.728C68.7961 50.368 68.1481 47.44 66.8521 44.944C65.5561 42.4 63.7561 40.456 61.4521 39.112C59.1481 37.768 56.4841 37.096 53.4601 37.096C50.4361 37.096 47.7481 37.768 45.3961 39.112C43.0921 40.456 41.2921 42.4 39.9961 44.944C38.7001 47.44 38.0521 50.368 38.0521 53.728Z" fill="#FAFAFA"/>
</svg>
